<mxfile host="app.diagrams.net" modified="2023-12-11T02:15:46.761Z" agent="Mozilla/5.0 (Windows NT 10.0; Win64; x64) AppleWebKit/537.36 (KHTML, like Gecko) Chrome/119.0.0.0 Safari/537.36 Edg/119.0.0.0" etag="UlKQ3uL222OY_1s04PZG" version="22.1.7" type="github">
  <diagram name="Page-1" id="74e2e168-ea6b-b213-b513-2b3c1d86103e">
    <mxGraphModel dx="1397" dy="790" grid="1" gridSize="10" guides="1" tooltips="1" connect="1" arrows="1" fold="1" page="1" pageScale="1" pageWidth="1100" pageHeight="850" background="none" math="0" shadow="0">
      <root>
        <mxCell id="0" />
        <mxCell id="1" parent="0" />
        <mxCell id="77e6c97f196da883-1" value="Pool" style="swimlane;html=1;childLayout=stackLayout;startSize=20;rounded=0;shadow=0;labelBackgroundColor=none;strokeWidth=1;fontFamily=Verdana;fontSize=8;align=center;direction=east;" parent="1" vertex="1">
          <mxGeometry x="90" y="50" width="960" height="750" as="geometry">
            <mxRectangle x="70" y="40" width="60" height="20" as="alternateBounds" />
          </mxGeometry>
        </mxCell>
        <mxCell id="77e6c97f196da883-6" value="后台" style="swimlane;html=1;startSize=20;" parent="77e6c97f196da883-1" vertex="1">
          <mxGeometry y="20" width="160" height="730" as="geometry" />
        </mxCell>
        <mxCell id="gH4Ed_tUDKJyHbOOPsyl-74" value="&lt;p style=&quot;line-height: 120%; font-size: 12px;&quot;&gt;商户菜单，增删改&lt;/p&gt;" style="rounded=1;whiteSpace=wrap;html=1;shadow=0;labelBackgroundColor=none;strokeWidth=1;fontFamily=Verdana;fontSize=8;align=center;" vertex="1" parent="77e6c97f196da883-6">
          <mxGeometry x="20" y="40" width="110" height="60" as="geometry" />
        </mxCell>
        <mxCell id="gH4Ed_tUDKJyHbOOPsyl-77" value="&lt;p style=&quot;line-height: 120%; font-size: 12px;&quot;&gt;修改站，绑定子商户&lt;/p&gt;" style="rounded=1;whiteSpace=wrap;html=1;shadow=0;labelBackgroundColor=none;strokeWidth=1;fontFamily=Verdana;fontSize=8;align=center;" vertex="1" parent="77e6c97f196da883-6">
          <mxGeometry x="12.5" y="110" width="135" height="60" as="geometry" />
        </mxCell>
        <mxCell id="77e6c97f196da883-7" value="用户" style="swimlane;html=1;startSize=20;" parent="77e6c97f196da883-1" vertex="1">
          <mxGeometry x="160" y="20" width="160" height="730" as="geometry" />
        </mxCell>
        <mxCell id="gH4Ed_tUDKJyHbOOPsyl-92" value="&lt;p style=&quot;line-height: 120%; font-size: 12px;&quot;&gt;开启充电&lt;/p&gt;" style="rounded=1;whiteSpace=wrap;html=1;shadow=0;labelBackgroundColor=none;strokeWidth=1;fontFamily=Verdana;fontSize=8;align=center;" vertex="1" parent="77e6c97f196da883-7">
          <mxGeometry x="30" y="310" width="100" height="60" as="geometry" />
        </mxCell>
        <mxCell id="77e6c97f196da883-2" value="station" style="swimlane;html=1;startSize=20;" parent="77e6c97f196da883-1" vertex="1">
          <mxGeometry x="320" y="20" width="160" height="730" as="geometry">
            <mxRectangle y="20" width="40" height="730" as="alternateBounds" />
          </mxGeometry>
        </mxCell>
        <mxCell id="gH4Ed_tUDKJyHbOOPsyl-81" value="&lt;p style=&quot;line-height: 120%; font-size: 12px;&quot;&gt;绑定当前站与子商户，并修改当前站支付渠道&lt;/p&gt;" style="rounded=1;whiteSpace=wrap;html=1;shadow=0;labelBackgroundColor=none;strokeWidth=1;fontFamily=Verdana;fontSize=8;align=center;" vertex="1" parent="77e6c97f196da883-2">
          <mxGeometry x="50" y="110" width="100" height="60" as="geometry" />
        </mxCell>
        <mxCell id="gH4Ed_tUDKJyHbOOPsyl-98" value="是否分账" style="strokeWidth=2;html=1;shape=mxgraph.flowchart.decision;whiteSpace=wrap;" vertex="1" parent="77e6c97f196da883-2">
          <mxGeometry x="30" y="290" width="100" height="100" as="geometry" />
        </mxCell>
        <mxCell id="77e6c97f196da883-3" value="order" style="swimlane;html=1;startSize=20;" parent="77e6c97f196da883-1" vertex="1">
          <mxGeometry x="480" y="20" width="160" height="730" as="geometry" />
        </mxCell>
        <mxCell id="gH4Ed_tUDKJyHbOOPsyl-96" value="&lt;p style=&quot;line-height: 120%; font-size: 12px;&quot;&gt;创建订单&lt;/p&gt;" style="rounded=1;whiteSpace=wrap;html=1;shadow=0;labelBackgroundColor=none;strokeWidth=1;fontFamily=Verdana;fontSize=8;align=center;" vertex="1" parent="77e6c97f196da883-3">
          <mxGeometry x="30" y="310" width="100" height="60" as="geometry" />
        </mxCell>
        <mxCell id="gH4Ed_tUDKJyHbOOPsyl-85" style="edgeStyle=orthogonalEdgeStyle;rounded=0;orthogonalLoop=1;jettySize=auto;html=1;exitX=0.25;exitY=1;exitDx=0;exitDy=0;" edge="1" parent="77e6c97f196da883-3" source="gH4Ed_tUDKJyHbOOPsyl-78" target="gH4Ed_tUDKJyHbOOPsyl-77">
          <mxGeometry relative="1" as="geometry">
            <mxPoint x="-340" y="200" as="targetPoint" />
            <Array as="points">
              <mxPoint x="215" y="190" />
              <mxPoint x="-400" y="190" />
            </Array>
          </mxGeometry>
        </mxCell>
        <mxCell id="gH4Ed_tUDKJyHbOOPsyl-86" value="2、返回子商户列表" style="edgeLabel;html=1;align=center;verticalAlign=middle;resizable=0;points=[];" vertex="1" connectable="0" parent="gH4Ed_tUDKJyHbOOPsyl-85">
          <mxGeometry x="-0.1503" y="1" relative="1" as="geometry">
            <mxPoint as="offset" />
          </mxGeometry>
        </mxCell>
        <mxCell id="77e6c97f196da883-4" value="payment" style="swimlane;html=1;startSize=20;" parent="77e6c97f196da883-1" vertex="1">
          <mxGeometry x="640" y="20" width="160" height="730" as="geometry" />
        </mxCell>
        <mxCell id="gH4Ed_tUDKJyHbOOPsyl-76" style="edgeStyle=orthogonalEdgeStyle;rounded=0;orthogonalLoop=1;jettySize=auto;html=1;" edge="1" parent="77e6c97f196da883-4" source="gH4Ed_tUDKJyHbOOPsyl-6">
          <mxGeometry relative="1" as="geometry">
            <mxPoint x="240" y="70" as="targetPoint" />
          </mxGeometry>
        </mxCell>
        <mxCell id="gH4Ed_tUDKJyHbOOPsyl-6" value="&lt;p style=&quot;line-height: 120%; font-size: 12px;&quot;&gt;子商户增删改&lt;/p&gt;" style="rounded=1;whiteSpace=wrap;html=1;shadow=0;labelBackgroundColor=none;strokeWidth=1;fontFamily=Verdana;fontSize=8;align=center;" vertex="1" parent="77e6c97f196da883-4">
          <mxGeometry x="30" y="40" width="100" height="60" as="geometry" />
        </mxCell>
        <mxCell id="gH4Ed_tUDKJyHbOOPsyl-80" style="edgeStyle=orthogonalEdgeStyle;rounded=0;orthogonalLoop=1;jettySize=auto;html=1;" edge="1" parent="77e6c97f196da883-4" source="gH4Ed_tUDKJyHbOOPsyl-78">
          <mxGeometry relative="1" as="geometry">
            <mxPoint x="240" y="140" as="targetPoint" />
          </mxGeometry>
        </mxCell>
        <mxCell id="gH4Ed_tUDKJyHbOOPsyl-78" value="&lt;p style=&quot;line-height: 120%; font-size: 12px;&quot;&gt;查询子商户&lt;/p&gt;" style="rounded=1;whiteSpace=wrap;html=1;shadow=0;labelBackgroundColor=none;strokeWidth=1;fontFamily=Verdana;fontSize=8;align=center;" vertex="1" parent="77e6c97f196da883-4">
          <mxGeometry x="30" y="110" width="100" height="60" as="geometry" />
        </mxCell>
        <mxCell id="gH4Ed_tUDKJyHbOOPsyl-109" style="edgeStyle=orthogonalEdgeStyle;rounded=0;orthogonalLoop=1;jettySize=auto;html=1;" edge="1" parent="77e6c97f196da883-4" source="gH4Ed_tUDKJyHbOOPsyl-107">
          <mxGeometry relative="1" as="geometry">
            <mxPoint x="230" y="340" as="targetPoint" />
          </mxGeometry>
        </mxCell>
        <mxCell id="gH4Ed_tUDKJyHbOOPsyl-110" style="edgeStyle=orthogonalEdgeStyle;rounded=0;orthogonalLoop=1;jettySize=auto;html=1;" edge="1" parent="77e6c97f196da883-4" source="gH4Ed_tUDKJyHbOOPsyl-107">
          <mxGeometry relative="1" as="geometry">
            <mxPoint x="80" y="420" as="targetPoint" />
          </mxGeometry>
        </mxCell>
        <mxCell id="gH4Ed_tUDKJyHbOOPsyl-107" value="&lt;p style=&quot;line-height: 120%; font-size: 12px;&quot;&gt;下单&lt;/p&gt;" style="rounded=1;whiteSpace=wrap;html=1;shadow=0;labelBackgroundColor=none;strokeWidth=1;fontFamily=Verdana;fontSize=8;align=center;" vertex="1" parent="77e6c97f196da883-4">
          <mxGeometry x="30" y="310" width="100" height="60" as="geometry" />
        </mxCell>
        <mxCell id="gH4Ed_tUDKJyHbOOPsyl-111" value="&lt;p style=&quot;line-height: 120%; font-size: 12px;&quot;&gt;存储&lt;/p&gt;" style="rounded=1;whiteSpace=wrap;html=1;shadow=0;labelBackgroundColor=none;strokeWidth=1;fontFamily=Verdana;fontSize=8;align=center;" vertex="1" parent="77e6c97f196da883-4">
          <mxGeometry x="30" y="420" width="100" height="60" as="geometry" />
        </mxCell>
        <mxCell id="77e6c97f196da883-5" value="江南" style="swimlane;html=1;startSize=20;" parent="77e6c97f196da883-1" vertex="1">
          <mxGeometry x="800" y="20" width="160" height="730" as="geometry" />
        </mxCell>
        <mxCell id="gH4Ed_tUDKJyHbOOPsyl-75" style="edgeStyle=orthogonalEdgeStyle;rounded=0;orthogonalLoop=1;jettySize=auto;html=1;" edge="1" parent="77e6c97f196da883-1" source="gH4Ed_tUDKJyHbOOPsyl-74" target="gH4Ed_tUDKJyHbOOPsyl-6">
          <mxGeometry relative="1" as="geometry" />
        </mxCell>
        <mxCell id="gH4Ed_tUDKJyHbOOPsyl-87" value="1、新建" style="edgeLabel;html=1;align=center;verticalAlign=middle;resizable=0;points=[];" vertex="1" connectable="0" parent="gH4Ed_tUDKJyHbOOPsyl-75">
          <mxGeometry x="-0.1385" y="1" relative="1" as="geometry">
            <mxPoint as="offset" />
          </mxGeometry>
        </mxCell>
        <mxCell id="gH4Ed_tUDKJyHbOOPsyl-82" style="edgeStyle=orthogonalEdgeStyle;rounded=0;orthogonalLoop=1;jettySize=auto;html=1;" edge="1" parent="77e6c97f196da883-1" source="gH4Ed_tUDKJyHbOOPsyl-77" target="gH4Ed_tUDKJyHbOOPsyl-81">
          <mxGeometry relative="1" as="geometry" />
        </mxCell>
        <mxCell id="gH4Ed_tUDKJyHbOOPsyl-91" value="3、绑定" style="edgeLabel;html=1;align=center;verticalAlign=middle;resizable=0;points=[];" vertex="1" connectable="0" parent="gH4Ed_tUDKJyHbOOPsyl-82">
          <mxGeometry x="-0.1599" relative="1" as="geometry">
            <mxPoint as="offset" />
          </mxGeometry>
        </mxCell>
        <mxCell id="gH4Ed_tUDKJyHbOOPsyl-83" style="edgeStyle=orthogonalEdgeStyle;rounded=0;orthogonalLoop=1;jettySize=auto;html=1;" edge="1" parent="77e6c97f196da883-1" source="gH4Ed_tUDKJyHbOOPsyl-77" target="gH4Ed_tUDKJyHbOOPsyl-78">
          <mxGeometry relative="1" as="geometry">
            <mxPoint x="80" y="290" as="targetPoint" />
            <Array as="points">
              <mxPoint x="50" y="240" />
              <mxPoint x="560" y="240" />
            </Array>
          </mxGeometry>
        </mxCell>
        <mxCell id="gH4Ed_tUDKJyHbOOPsyl-94" style="edgeStyle=orthogonalEdgeStyle;rounded=0;orthogonalLoop=1;jettySize=auto;html=1;" edge="1" parent="77e6c97f196da883-1" source="gH4Ed_tUDKJyHbOOPsyl-92" target="gH4Ed_tUDKJyHbOOPsyl-98">
          <mxGeometry relative="1" as="geometry">
            <mxPoint x="350.0000000000002" y="360" as="targetPoint" />
          </mxGeometry>
        </mxCell>
        <mxCell id="gH4Ed_tUDKJyHbOOPsyl-97" style="edgeStyle=orthogonalEdgeStyle;rounded=0;orthogonalLoop=1;jettySize=auto;html=1;" edge="1" parent="77e6c97f196da883-1" target="gH4Ed_tUDKJyHbOOPsyl-96">
          <mxGeometry relative="1" as="geometry">
            <mxPoint x="450.0000000000002" y="360" as="sourcePoint" />
          </mxGeometry>
        </mxCell>
        <mxCell id="gH4Ed_tUDKJyHbOOPsyl-105" value="否" style="edgeLabel;html=1;align=center;verticalAlign=middle;resizable=0;points=[];" vertex="1" connectable="0" parent="gH4Ed_tUDKJyHbOOPsyl-97">
          <mxGeometry x="-0.0566" y="-1" relative="1" as="geometry">
            <mxPoint as="offset" />
          </mxGeometry>
        </mxCell>
        <mxCell id="gH4Ed_tUDKJyHbOOPsyl-101" style="edgeStyle=orthogonalEdgeStyle;rounded=0;orthogonalLoop=1;jettySize=auto;html=1;" edge="1" parent="77e6c97f196da883-1" source="gH4Ed_tUDKJyHbOOPsyl-98" target="gH4Ed_tUDKJyHbOOPsyl-96">
          <mxGeometry relative="1" as="geometry">
            <mxPoint x="400" y="480" as="targetPoint" />
            <Array as="points">
              <mxPoint x="400" y="450" />
              <mxPoint x="560" y="450" />
            </Array>
          </mxGeometry>
        </mxCell>
        <mxCell id="gH4Ed_tUDKJyHbOOPsyl-102" value="是，携带【商户编号】数据" style="edgeLabel;html=1;align=center;verticalAlign=middle;resizable=0;points=[];" vertex="1" connectable="0" parent="gH4Ed_tUDKJyHbOOPsyl-101">
          <mxGeometry x="-0.1531" y="-4" relative="1" as="geometry">
            <mxPoint as="offset" />
          </mxGeometry>
        </mxCell>
        <mxCell id="gH4Ed_tUDKJyHbOOPsyl-108" style="edgeStyle=orthogonalEdgeStyle;rounded=0;orthogonalLoop=1;jettySize=auto;html=1;" edge="1" parent="77e6c97f196da883-1" source="gH4Ed_tUDKJyHbOOPsyl-96" target="gH4Ed_tUDKJyHbOOPsyl-107">
          <mxGeometry relative="1" as="geometry" />
        </mxCell>
      </root>
    </mxGraphModel>
  </diagram>
</mxfile>
